<svg width="32" height="19" viewBox="0 0 32 19" fill="none" xmlns="http://www.w3.org/2000/svg">
<path d="M10.5456 18.0001C11.2689 18.0001 11.9626 17.7245 12.4741 17.234C12.9856 16.7435 13.2729 16.0783 13.2729 15.3847C13.2729 14.691 12.9856 14.0258 12.4741 13.5353C11.9626 13.0448 11.2689 12.7693 10.5456 12.7693C9.82231 12.7693 9.12862 13.0448 8.61716 13.5353C8.1057 14.0258 7.81836 14.691 7.81836 15.3847C7.81836 16.0783 8.1057 16.7435 8.61716 17.234C9.12862 17.7245 9.82231 18.0001 10.5456 18.0001V18.0001ZM24.182 18.0001C24.9053 18.0001 25.599 17.7245 26.1105 17.234C26.6219 16.7435 26.9093 16.0783 26.9093 15.3847C26.9093 14.691 26.6219 14.0258 26.1105 13.5353C25.599 13.0448 24.9053 12.7693 24.182 12.7693C23.4587 12.7693 22.765 13.0448 22.2535 13.5353C21.7421 14.0258 21.4547 14.691 21.4547 15.3847C21.4547 16.0783 21.7421 16.7435 22.2535 17.234C22.765 17.7245 23.4587 18.0001 24.182 18.0001V18.0001Z" stroke="#1F1F1F" stroke-width="1.14" stroke-miterlimit="1.5" stroke-linecap="round" stroke-linejoin="round"/>
<path d="M13.3409 15.3846H20.0909V1.78462C20.0909 1.57652 20.0047 1.37695 19.8513 1.22981C19.6978 1.08266 19.4897 1 19.2727 1H1M7.34091 15.3846H4.54545C4.43801 15.3846 4.33162 15.3643 4.23235 15.3249C4.13308 15.2855 4.04289 15.2277 3.96691 15.1548C3.89094 15.0819 3.83067 14.9955 3.78955 14.9003C3.74844 14.8051 3.72727 14.703 3.72727 14.6V8.19231" stroke="#1F1F1F" stroke-width="1.14" stroke-linecap="round"/>
<path d="M2.36328 4.9231H7.81783" stroke="#1F1F1F" stroke-width="1.14" stroke-linecap="round" stroke-linejoin="round"/>
<path d="M20.0908 4.9231H27.7408C27.899 4.92313 28.0537 4.96712 28.1863 5.04975C28.319 5.13237 28.4238 5.25008 28.4881 5.38863L30.929 10.656C30.9755 10.756 30.9997 10.8643 30.9999 10.9738V14.6C30.9999 14.7031 30.9787 14.8051 30.9376 14.9003C30.8965 14.9955 30.8362 15.082 30.7603 15.1548C30.6843 15.2277 30.5941 15.2855 30.4948 15.3249C30.3956 15.3643 30.2892 15.3846 30.1817 15.3846H27.5908M20.0908 15.3846H21.4545" stroke="#1F1F1F" stroke-width="1.14" stroke-linecap="round"/>
</svg>
