<svg id="download-on-the-app-store-apple-4" xmlns="http://www.w3.org/2000/svg" xmlns:xlink="http://www.w3.org/1999/xlink" width="208.775" height="62.321" viewBox="0 0 208.775 62.321">
  <defs>
    <linearGradient id="linear-gradient" x1="0.5" y1="1.003" x2="0.5" y2="-2.604" gradientUnits="objectBoundingBox">
      <stop offset="0" stop-color="#1a1a1a" stop-opacity="0.102"/>
      <stop offset="0.123" stop-color="#212121" stop-opacity="0.153"/>
      <stop offset="0.308" stop-color="#353535" stop-opacity="0.227"/>
      <stop offset="0.532" stop-color="#575757" stop-opacity="0.318"/>
      <stop offset="0.783" stop-color="#858585" stop-opacity="0.42"/>
      <stop offset="1" stop-color="#b3b3b3" stop-opacity="0.51"/>
    </linearGradient>
  </defs>
  <path id="Path" d="M206.013,53.576a5.991,5.991,0,0,1-1.738,4.223,5.9,5.9,0,0,1-4.195,1.746H5.94A5.955,5.955,0,0,1,0,53.577V5.977A5.963,5.963,0,0,1,5.94,0H200.079a5.911,5.911,0,0,1,4.2,1.75,6,6,0,0,1,1.737,4.226Z" transform="translate(1.377 1.387)" fill="#fff"/>
  <path id="Path-2" data-name="Path" d="M201.458,62.321H7.317A7.345,7.345,0,0,1,0,54.963V7.366A7.35,7.35,0,0,1,7.317,0H201.456a7.353,7.353,0,0,1,7.317,7.366v47.6a7.344,7.344,0,0,1-7.316,7.358Z" fill="#a6a6a6"/>
  <path id="Path-3" data-name="Path" d="M206.013,53.576a5.991,5.991,0,0,1-1.738,4.223,5.9,5.9,0,0,1-4.195,1.746H5.94A5.955,5.955,0,0,1,0,53.577V5.977A5.963,5.963,0,0,1,5.94,0H200.079a5.911,5.911,0,0,1,4.2,1.75,6,6,0,0,1,1.737,4.226Z" transform="translate(1.377 1.387)"/>
  <path id="Shape" d="M4.132,34.729C.774,29.786-1.841,20.8,1.665,14.688A9.627,9.627,0,0,1,9.774,9.708c2.573-.053,4.96,1.75,6.541,1.75,1.551,0,4.5-2.157,7.547-1.834A9.168,9.168,0,0,1,31.1,13.562a9.041,9.041,0,0,0-4.273,7.582,8.731,8.731,0,0,0,5.292,8.032,20.03,20.03,0,0,1-2.753,5.645c-1.622,2.443-3.32,4.832-6.02,4.874-2.621.06-3.5-1.552-6.509-1.552-3.034,0-3.974,1.51-6.488,1.613l-.132,0C7.71,39.758,5.785,37.109,4.132,34.729ZM16.005,9.166A8.5,8.5,0,0,1,18.079,3.03,8.965,8.965,0,0,1,23.894,0a8.935,8.935,0,0,1-2.021,6.372,7.571,7.571,0,0,1-5.483,2.809C16.262,9.181,16.133,9.176,16.005,9.166Z" transform="translate(19.793 9.689)" fill="#fff"/>
  <path id="Path-4" data-name="Path" d="M103.987,0H0L40.73,62.321h63.257a7.35,7.35,0,0,0,7.317-7.362V7.365A7.351,7.351,0,0,0,103.987,0Z" transform="translate(97.47 0)" fill="url(#linear-gradient)"/>
  <g id="Group" transform="translate(65.653 10.212)">
    <path id="Shape-2" data-name="Shape" d="M40.6,44.948H37.3v-16.1c0-1.558-.041-3.212-.122-4.915h2.9l.184,2.37h.062a5.846,5.846,0,0,1,9.395-.588,8.353,8.353,0,0,1,1.756,5.511,8.542,8.542,0,0,1-2.058,6.03,6.039,6.039,0,0,1-4.578,1.97A4.592,4.592,0,0,1,40.6,37.1v7.845h0Zm1.45-17.866a3.8,3.8,0,0,0-1.3,2.14,4.42,4.42,0,0,0-.156,1.011v2.5a4.051,4.051,0,0,0,.991,2.755,3.307,3.307,0,0,0,2.584,1.123,3.383,3.383,0,0,0,2.9-1.446,6.432,6.432,0,0,0,1.04-3.817,6.226,6.226,0,0,0-.98-3.6,3.384,3.384,0,0,0-2.869-1.475A3.439,3.439,0,0,0,42.051,27.083ZM23.525,44.948h-3.3v-16.1c0-1.558-.041-3.212-.122-4.915h2.9l.184,2.37h.062a5.513,5.513,0,0,1,5.01-2.678,5.512,5.512,0,0,1,4.383,2.091A8.348,8.348,0,0,1,34.4,31.223a8.542,8.542,0,0,1-2.058,6.03,6.034,6.034,0,0,1-4.577,1.97,4.592,4.592,0,0,1-4.24-2.122v7.845h0Zm1.451-17.866a3.8,3.8,0,0,0-1.3,2.14,4.335,4.335,0,0,0-.154,1.011v2.5a4.03,4.03,0,0,0,.994,2.755,3.294,3.294,0,0,0,2.58,1.123A3.387,3.387,0,0,0,30,35.162a6.432,6.432,0,0,0,1.04-3.817,6.233,6.233,0,0,0-.979-3.6,3.384,3.384,0,0,0-2.872-1.475A3.426,3.426,0,0,0,24.976,27.083Zm60.3,9.959a8.022,8.022,0,0,1-1.939-5.508,8.2,8.2,0,0,1,2-5.692,6.946,6.946,0,0,1,5.394-2.216,6.8,6.8,0,0,1,5.254,2.185,7.931,7.931,0,0,1,1.894,5.473,8.278,8.278,0,0,1-1.955,5.662,6.979,6.979,0,0,1-5.438,2.277A6.654,6.654,0,0,1,85.279,37.041Zm2.311-9.208a6.865,6.865,0,0,0-.886,3.59,6.734,6.734,0,0,0,.886,3.531,3.371,3.371,0,0,0,5.961-.031,6.79,6.79,0,0,0,.913-3.562,6.771,6.771,0,0,0-.885-3.528,3.275,3.275,0,0,0-2.964-1.782A3.315,3.315,0,0,0,87.59,27.833ZM57.8,37.9l.763-2.769a9.138,9.138,0,0,0,4.766,1.293,4.476,4.476,0,0,0,2.9-.846,2.773,2.773,0,0,0,1.042-2.26,2.908,2.908,0,0,0-.858-2.124,7.925,7.925,0,0,0-2.841-1.6q-5.408-2.032-5.408-5.941a5.259,5.259,0,0,1,1.908-4.184,7.517,7.517,0,0,1,5.058-1.632,9.929,9.929,0,0,1,4.674.986l-.827,2.708a8.133,8.133,0,0,0-3.957-.954,4.007,4.007,0,0,0-2.73.862,2.477,2.477,0,0,0-.827,1.879,2.547,2.547,0,0,0,.949,2.03,10.64,10.64,0,0,0,2.992,1.6,10.134,10.134,0,0,1,3.909,2.521,5.274,5.274,0,0,1,1.258,3.6,5.56,5.56,0,0,1-1.83,4.309,8.074,8.074,0,0,1-5.609,1.816A9.747,9.747,0,0,1,57.8,37.9Zm17.93.087a5.923,5.923,0,0,1-1.1-4.031v-7.54H72.465V23.923h2.166V21.186l3.239-.986v3.724h3.637v2.5H77.871v7.261q0,2.77,1.925,2.768a5.711,5.711,0,0,0,1.465-.154l.091,2.524a7.435,7.435,0,0,1-2.565.367A3.942,3.942,0,0,1,75.731,37.988Zm36.406-.869a7.623,7.623,0,0,1-1.969-5.493A8.651,8.651,0,0,1,112,26a6.331,6.331,0,0,1,5.192-2.4,5.548,5.548,0,0,1,4.86,2.4,8.152,8.152,0,0,1,1.308,4.7,7.885,7.885,0,0,1-.121,1.507h-9.9a4.366,4.366,0,0,0,1.436,3.388,4.909,4.909,0,0,0,3.238,1.045,10.945,10.945,0,0,0,4-.707l.516,2.305a12.387,12.387,0,0,1-4.978.924A7.222,7.222,0,0,1,112.137,37.118Zm2.187-9.866a4.983,4.983,0,0,0-.977,2.583l6.871,0a4.563,4.563,0,0,0-.641-2.555,2.884,2.884,0,0,0-2.628-1.387A3.124,3.124,0,0,0,114.324,27.252ZM3.419,38.886H0L6.63,18.146h4.094l6.659,20.736-3.514,0-1.925-6.091H5.254L3.42,38.885h0ZM7.545,24.822,5.835,30.237h5.53L9.623,24.822c-.182-.55-.531-1.865-1.038-3.907H8.524C8.321,21.792,8,23.069,7.545,24.822Zm93.213,14.063V28.639q0-2.354-.1-4.707h2.873l.121,2.862h.091a5.129,5.129,0,0,1,1.649-2.371,3.974,3.974,0,0,1,2.385-.8,5.238,5.238,0,0,1,.825.06l0,3.17a5.629,5.629,0,0,0-1.04-.093,3.1,3.1,0,0,0-2.688,1.325,5.01,5.01,0,0,0-.825,2.953v7.847ZM77.679,7.109a3.565,3.565,0,0,1,3.633-3.887,3.452,3.452,0,0,1,3.514,3.766,4.046,4.046,0,0,1-1,2.811,3.58,3.58,0,0,1-6.147-2.691Zm1.652-.048c0,1.54.782,2.617,1.9,2.617,1.1,0,1.907-1.113,1.907-2.647A3.012,3.012,0,0,0,82.409,4.9a1.607,1.607,0,0,0-1.157-.487C80.1,4.416,79.331,5.478,79.331,7.062Zm-15.339.077c0-2.272,1.343-3.919,3.194-3.919a2.194,2.194,0,0,1,2.058,1h.032V0H70.9v8.74c0,.767.02,1.415.06,1.981H69.517l-.076-1.181H69.4a2.45,2.45,0,0,1-2.343,1.348C65.279,10.89,63.992,9.312,63.992,7.139Zm1.639-.062c0,1.493.766,2.5,1.906,2.5a1.836,1.836,0,0,0,1.74-1.952V6.4a1.775,1.775,0,0,0-1.708-1.907C66.391,4.491,65.631,5.505,65.631,7.077ZM55.755,8.726c0-1.775,1.514-2.753,4.264-2.753V5.839c0-.965-.51-1.453-1.514-1.453a3.419,3.419,0,0,0-1.907.545l-.33-1.074a4.643,4.643,0,0,1,2.506-.635c1.9,0,2.869,1.022,2.869,3.04V8.97a11.088,11.088,0,0,0,.105,1.754H60.286l-.118-.847h-.043A2.489,2.489,0,0,1,57.99,10.89,2.128,2.128,0,0,1,55.755,8.726Zm1.6-.182A1.038,1.038,0,0,0,58.47,9.692a1.549,1.549,0,0,0,1.593-1.5V7.062C58.217,7.062,57.358,7.533,57.358,8.544ZM46.744,7.109a3.565,3.565,0,0,1,3.633-3.887,3.452,3.452,0,0,1,3.514,3.766,4.042,4.042,0,0,1-1,2.811,3.58,3.58,0,0,1-6.147-2.691ZM48.4,7.062c0,1.54.782,2.617,1.9,2.617,1.1,0,1.906-1.113,1.906-2.647a3.266,3.266,0,0,0-.516-1.869,1.638,1.638,0,0,0-1.373-.746C49.17,4.416,48.4,5.478,48.4,7.062Zm-36.232.048A3.566,3.566,0,0,1,15.8,3.222a3.452,3.452,0,0,1,3.514,3.766,4.047,4.047,0,0,1-1,2.811,3.58,3.58,0,0,1-6.147-2.691Zm1.653-.048c0,1.54.784,2.617,1.907,2.617,1.1,0,1.906-1.113,1.906-2.647s-.778-2.615-1.89-2.615C14.592,4.416,13.819,5.478,13.819,7.062ZM101.081,8.3V4.6h-1.066V3.372h1.066V2.026l1.592-.485v1.83h1.784V4.6h-1.785V8.167c0,.909.313,1.362.944,1.362a3.2,3.2,0,0,0,.719-.076l.045,1.241a3.59,3.59,0,0,1-1.258.182C101.845,10.876,101.081,10.165,101.081,8.3Zm14.326-1.15c0-2.325,1.419-3.947,3.449-3.947,1.844,0,3.034,1.37,3.034,3.493a3.171,3.171,0,0,1-.055.74h-4.867a2.109,2.109,0,0,0,2.3,2.178,5.454,5.454,0,0,0,1.966-.348l.252,1.134a6.082,6.082,0,0,1-2.447.454A3.405,3.405,0,0,1,115.407,7.154Zm1.563-.878h3.378a2.1,2.1,0,0,0-.522-1.516,1.49,1.49,0,0,0-1.083-.419A1.936,1.936,0,0,0,116.97,6.276ZM1.931,10.692V.665A17.71,17.71,0,0,1,4.668.453h.055c3.616,0,5.526,1.705,5.526,4.93A5.224,5.224,0,0,1,8.734,9.42,6.375,6.375,0,0,1,4.3,10.813,21.15,21.15,0,0,1,1.931,10.692ZM3.55,1.844V9.466a8.5,8.5,0,0,0,1.1.045c2.509,0,3.89-1.45,3.89-4.083A3.324,3.324,0,0,0,4.856,1.737,6.5,6.5,0,0,0,3.55,1.844Zm107.87,8.879V6.533c0-1.315-.494-1.981-1.471-1.981a1.6,1.6,0,0,0-1.624,1.74v4.431h-1.62V0h1.62V4.416h.032a2.458,2.458,0,0,1,2.194-1.2c1.544,0,2.488,1.21,2.488,3.131v4.372Zm-19.5,0V6.5c0-1.3-.495-1.952-1.471-1.952a1.691,1.691,0,0,0-1.62,1.8v4.372H87.208V5.473c0-.649-.015-1.346-.06-2.1h1.426l.076,1.134h.045a2.618,2.618,0,0,1,2.312-1.286c1.531,0,2.539,1.179,2.539,3.1v4.4Zm-49.2,0V0h1.624V10.723Zm-4.47,0V6.5c0-1.3-.495-1.952-1.471-1.952a1.692,1.692,0,0,0-1.622,1.8v4.372H33.538V5.473c0-.649-.015-1.346-.06-2.1H34.9l.076,1.134h.045a2.617,2.617,0,0,1,2.314-1.284c1.531,0,2.538,1.181,2.538,3.1l0,4.4Zm-10.55,0-.945-3.191q-.351-1.172-.586-2.374H26.14a16.075,16.075,0,0,1-.585,2.374L24.55,10.723h-1.5L20.9,3.372h1.666l.826,3.494q.292,1.249.495,2.36h.031a24,24,0,0,1,.6-2.345l1.036-3.508h1.321l.993,3.434q.345,1.2.586,2.42H28.5a21.242,21.242,0,0,1,.495-2.42l.886-3.434h1.593l-2.283,7.35Z" fill="#fff"/>
  </g>
</svg>
