<svg xmlns="http://www.w3.org/2000/svg" xmlns:xlink="http://www.w3.org/1999/xlink" width="210" height="62.8" viewBox="0 0 210 62.8">
  <defs>
    <linearGradient id="linear-gradient" x1="0.908" y1="0.048" x2="-0.383" y2="0.72" gradientUnits="objectBoundingBox">
      <stop offset="0" stop-color="#00a0ff"/>
      <stop offset="0.007" stop-color="#00a1ff"/>
      <stop offset="0.26" stop-color="#00beff"/>
      <stop offset="0.512" stop-color="#00d2ff"/>
      <stop offset="0.76" stop-color="#00dfff"/>
      <stop offset="1" stop-color="#00e3ff"/>
    </linearGradient>
    <linearGradient id="linear-gradient-2" x1="1.077" y1="0.494" x2="-1.307" y2="0.494" gradientUnits="objectBoundingBox">
      <stop offset="0" stop-color="#ffe000"/>
      <stop offset="0.409" stop-color="#ffbd00"/>
      <stop offset="0.775" stop-color="orange"/>
      <stop offset="1" stop-color="#ff9c00"/>
    </linearGradient>
    <linearGradient id="linear-gradient-3" x1="0.864" y1="0.178" x2="-0.499" y2="1.944" gradientUnits="objectBoundingBox">
      <stop offset="0" stop-color="#ff3a44"/>
      <stop offset="1" stop-color="#c31162"/>
    </linearGradient>
    <linearGradient id="linear-gradient-4" x1="-0.186" y1="-0.545" x2="0.423" y2="0.247" gradientUnits="objectBoundingBox">
      <stop offset="0" stop-color="#32a071"/>
      <stop offset="0.069" stop-color="#2da771"/>
      <stop offset="0.476" stop-color="#15cf74"/>
      <stop offset="0.801" stop-color="#06e775"/>
      <stop offset="1" stop-color="#00f076"/>
    </linearGradient>
  </defs>
  <g id="Logo_Store_App_Store_Copy" data-name="Logo/Store/App Store Copy" transform="translate(0)">
    <g id="google-play-badge_2_" data-name="google-play-badge (2)" transform="translate(0 0)">
      <path id="Path" d="M201.043,62.321H7.732A7.686,7.686,0,0,1,0,54.531V7.79A7.686,7.686,0,0,1,7.732,0h193.31a7.686,7.686,0,0,1,7.732,7.79V54.531A7.686,7.686,0,0,1,201.043,62.321Z" transform="translate(0.333 0.48)"/>
      <path id="Shape" d="M7.777,62A7.688,7.688,0,0,1,0,54.251V7.751A7.787,7.787,0,0,1,7.777,0H202.221A7.787,7.787,0,0,1,210,7.751v46.5A7.688,7.688,0,0,1,202.221,62Z" transform="translate(0 0)" fill="#a6a6a6"/>
      <path id="Shape-2" data-name="Shape" d="M1.392,8.258A4.6,4.6,0,0,1,0,4.829,4.6,4.6,0,0,1,1.392,1.4,4.525,4.525,0,0,1,4.794,0,4.094,4.094,0,0,1,6.649.467,3.383,3.383,0,0,1,8.042,1.558l-.773.78A2.876,2.876,0,0,0,4.794,1.247,3.065,3.065,0,0,0,2.319,2.338,3.222,3.222,0,0,0,1.237,4.986,3.221,3.221,0,0,0,2.319,7.634,3.966,3.966,0,0,0,4.794,8.725,3.379,3.379,0,0,0,7.423,7.634,2.585,2.585,0,0,0,8.2,5.765h-3.4V4.518H9.278v.624A4.26,4.26,0,0,1,8.2,8.258a4.525,4.525,0,0,1-3.4,1.4A4.525,4.525,0,0,1,1.392,8.258Zm41.6,0A4.58,4.58,0,0,1,41.6,4.829,4.577,4.577,0,0,1,42.994,1.4a4.826,4.826,0,0,1,6.8,0,4.575,4.575,0,0,1,1.392,3.427A4.579,4.579,0,0,1,49.8,8.258a4.829,4.829,0,0,1-6.8,0ZM43.92,2.18a3.788,3.788,0,0,0-1.083,2.649A3.207,3.207,0,0,0,43.92,7.478,3.644,3.644,0,0,0,46.4,8.569,3.068,3.068,0,0,0,48.87,7.478a3.784,3.784,0,0,0,1.083-2.649A3.219,3.219,0,0,0,48.87,2.18,3.66,3.66,0,0,0,46.4,1.091,3.069,3.069,0,0,0,43.92,2.18ZM58.766,9.5,53.973,1.869V9.5H52.89V.156h1.391l4.484,7.322V.156H60V9.5ZM34.95,9.5h0Zm-1.083,0V1.247H31.239V.156H37.58V1.247H34.95V9.5Zm-5.258,0V.156h1.238V9.5Zm-8.35,0V1.247H17.63V.156h6.5V1.247H21.5V9.5Zm-9.28,0V.156h5.414V1.247H12.218v2.96h3.866V5.3H12.218v2.96h4.176V9.5Z" transform="translate(64.357 11.23)" fill="#fff"/>
      <path id="Shape-3" data-name="Shape" d="M50.261,22.436l2.475-1.091a3.416,3.416,0,0,0,3.248,2.337c2.227,0,3.556-1.457,3.556-3.9v-.935h-.154a4.459,4.459,0,0,1-3.4,1.558,6.238,6.238,0,0,1-4.448-1.869,6.581,6.581,0,0,1-1.893-4.674,6.771,6.771,0,0,1,1.952-4.752,6.23,6.23,0,0,1,4.389-1.948A5.079,5.079,0,0,1,59.54,8.725V7.634h2.783V19.475a7.088,7.088,0,0,1-1.817,5.239,6.043,6.043,0,0,1-4.368,1.617A6.427,6.427,0,0,1,50.261,22.436Zm2.165-8.569a3.85,3.85,0,0,0,3.712,4.051c2.028,0,3.557-1.742,3.557-4.051s-1.53-4.051-3.557-4.051A3.85,3.85,0,0,0,52.426,13.867ZM120.008,26.02l2.938-6.544-5.1-11.842h3.092l3.4,8.413h.154l3.248-8.413h3.093L122.945,26.02ZM70.519,18.774a6.807,6.807,0,0,1-1.855-4.752,6.952,6.952,0,0,1,1.817-4.869,5.909,5.909,0,0,1,9.936,2.375l.308.78-8.814,3.738a3.346,3.346,0,0,0,3.248,2.026A3.722,3.722,0,0,0,78.407,16.2l2.165,1.558a6.459,6.459,0,0,1-10.053,1.014Zm.928-5.065,5.877-2.492a2.732,2.732,0,0,0-2.475-1.4A3.763,3.763,0,0,0,71.447,13.71ZM37.038,18.774a6.692,6.692,0,0,1-1.932-4.752,6.528,6.528,0,0,1,6.649-6.7,6.69,6.69,0,0,1,4.717,1.831,6.613,6.613,0,0,1,1.934,4.869,6.661,6.661,0,0,1-11.368,4.752Zm1.005-4.908a3.726,3.726,0,1,0,7.423,0,3.765,3.765,0,0,0-3.712-4.051A3.85,3.85,0,0,0,38.044,13.867ZM22.656,18.774a6.692,6.692,0,0,1-1.932-4.752,6.528,6.528,0,0,1,6.649-6.7A6.69,6.69,0,0,1,32.09,9.154a6.613,6.613,0,0,1,1.934,4.869,6.661,6.661,0,0,1-11.368,4.752Zm1.005-4.908a3.726,3.726,0,1,0,7.423,0,3.764,3.764,0,0,0-3.712-4.051A3.85,3.85,0,0,0,23.661,13.867ZM0,10.282A10.47,10.47,0,0,1,10.361,0,9.872,9.872,0,0,1,17.32,2.8L15.311,4.829a7.647,7.647,0,0,0-5.1-2.025,7.324,7.324,0,0,0-7.269,7.478,7.229,7.229,0,0,0,7.269,7.479,6.821,6.821,0,0,0,5.1-2.026,5.908,5.908,0,0,0,1.545-3.583H10.207v-2.8H19.8a5.892,5.892,0,0,1,.154,1.714,9.425,9.425,0,0,1-2.474,6.544,8.873,8.873,0,0,1-7.115,2.96A10.471,10.471,0,0,1,0,10.282Zm106.553,5.765a3.858,3.858,0,0,1,1.739-3.234,6.746,6.746,0,0,1,3.828-1.129,6.068,6.068,0,0,1,2.939.78v-.156a2.893,2.893,0,0,0-3.093-2.493,2.7,2.7,0,0,0-2.629,1.4l-2.629-1.091a4.27,4.27,0,0,1,2.03-2.239,6.524,6.524,0,0,1,3.074-.721A5.876,5.876,0,0,1,118,12.62V20.1h-2.783V18.54h-.154a4.35,4.35,0,0,1-3.712,1.869A4.56,4.56,0,0,1,106.553,16.047Zm2.629.157c0,1.256,1.387,1.714,2.319,1.714a3.6,3.6,0,0,0,3.4-3.116c-.056-.022-.112-.045-.167-.069l-.06-.024a5.523,5.523,0,0,0-2.4-.531C110.78,14.178,109.183,14.711,109.183,16.2ZM101.759,20.1V.623H104.7V20.1Zm-11.91,0H86.912V.623h6.959a6.668,6.668,0,0,1,4.389,1.636A5.863,5.863,0,0,1,100.213,6.7a5.861,5.861,0,0,1-1.952,4.441,6.661,6.661,0,0,1-4.389,1.636H89.85V20.1h0Zm0-10.127h4.176a3.525,3.525,0,0,0,3.4-3.428,3.41,3.41,0,0,0-3.4-3.271H89.85ZM64.18,20.1V.623h2.938V20.1Z" transform="translate(63.893 27.122)" fill="#fff"/>
      <g id="Group" transform="translate(15.798 11.615)">
        <path id="Path-2" data-name="Path" d="M.619,0A3.062,3.062,0,0,0,0,2.181V36.614a3.1,3.1,0,0,0,.773,2.181l.155.156L20.1,19.631v-.312Z" transform="translate(0 0.55)" fill="url(#linear-gradient)"/>
        <path id="Path-3" data-name="Path" d="M6.341,13.243,0,6.855V6.388L6.341,0,6.5.156l7.578,4.362c2.165,1.246,2.165,3.272,0,4.518L6.341,13.243Z" transform="translate(19.95 13.481)" fill="url(#linear-gradient-2)"/>
        <path id="Path-4" data-name="Path" d="M25.826,6.544,19.331,0,0,19.475c.773.779,1.856.779,3.248.156L25.826,6.544" transform="translate(0.619 20.025)" fill="url(#linear-gradient-3)"/>
        <path id="Path-5" data-name="Path" d="M25.826,13.444,3.248.512C1.856-.267.773-.111,0,.668L19.331,19.987l6.5-6.544Z" transform="translate(0.619 0.038)" fill="url(#linear-gradient-4)"/>
        <path id="Path-6" data-name="Path" d="M25.672,0,3.248,12.776a2.514,2.514,0,0,1-3.093,0L0,12.932l.155.156a2.514,2.514,0,0,0,3.093,0Z" transform="translate(0.619 26.413)" opacity="0.2"/>
        <path id="Shape-4" data-name="Shape" d="M.634,19.164H.773v.156Q.7,19.247.634,19.164Zm-.015,0a2.484,2.484,0,0,1-.591-1.554,3.034,3.034,0,0,0,.606,1.554ZM0,17.138v-.156c0,.219.008.429.027.628A4.049,4.049,0,0,1,0,17.138ZM26.29,6.389l7.732-4.364C34.95,1.4,35.569.78,35.569,0a2.591,2.591,0,0,1-1.547,2.182L26.444,6.544Z" transform="translate(0 20.025)" opacity="0.12"/>
        <path id="Path-7" data-name="Path" d="M3.866.705,34.023,18c.928.623,1.546,1.246,1.546,2.025a2.59,2.59,0,0,0-1.546-2.181L3.866.55C1.7-.7,0,.238,0,2.731v.156C0,.55,1.7-.541,3.866.705Z" fill="#fff" opacity="0.25"/>
      </g>
    </g>
  </g>
</svg>
