<svg id="Brand" xmlns="http://www.w3.org/2000/svg" width="34.277" height="34.277" viewBox="0 0 34.277 34.277">
  <g id="Iconspace_User_1_25px" data-name="Iconspace_User 1_25px">
    <path id="Path" d="M0,0H34.277V34.277H0Z" fill="none"/>
    <path id="Path-2" data-name="Path" d="M0,0H34.277V34.277H0Z" fill="none"/>
    <g id="facebook" transform="translate(2.742 2.742)">
      <path id="Path-3" data-name="Path" d="M27.209,0H1.584A1.584,1.584,0,0,0,0,1.584V27.209a1.584,1.584,0,0,0,1.584,1.584H15.375V17.635H11.632V13.316h3.743V10.077a5.24,5.24,0,0,1,5.586-5.758,29.166,29.166,0,0,1,3.354.173V8.379H22.026c-1.814,0-2.159.864-2.159,2.116v2.778h4.319l-.561,4.319H19.867v11.2h7.342a1.584,1.584,0,0,0,1.584-1.584V1.584A1.584,1.584,0,0,0,27.209,0Z" transform="translate(0 0)" fill="#919eab"/>
    </g>
  </g>
</svg>
