<svg width="38" height="15" viewBox="0 0 38 15" fill="none" xmlns="http://www.w3.org/2000/svg">
<path d="M17.7349 7.25141V11.6473H16.3398V0.792023H20.0382C20.9755 0.792023 21.7747 1.10449 22.4287 1.72935C23.0972 2.35421 23.4314 3.11712 23.4314 4.01808C23.4314 4.94086 23.0972 5.70377 22.4287 6.32136C21.782 6.93895 20.9828 7.24414 20.0382 7.24414H17.7349V7.25141ZM17.7349 2.12895V5.91448H20.0673C20.6195 5.91448 21.0845 5.72559 21.4478 5.35501C21.8183 4.98443 22.0072 4.53399 22.0072 4.02535C22.0072 3.524 21.8183 3.08075 21.4478 2.71025C21.0844 2.32512 20.6267 2.13623 20.0673 2.13623H17.7349V2.12895Z" fill="#383E41"/>
<path d="M27.0785 3.97452C28.1102 3.97452 28.9241 4.25062 29.5198 4.80282C30.1157 5.35502 30.4135 6.11065 30.4135 7.0698V11.6473H29.0839V10.6156H29.0257C28.4517 11.4657 27.6815 11.8871 26.7225 11.8871C25.9014 11.8871 25.2184 11.6473 24.6662 11.1605C24.114 10.6737 23.8379 10.0706 23.8379 9.34406C23.8379 8.57388 24.1285 7.96356 24.7098 7.51304C25.2911 7.05533 26.0686 6.83007 27.0349 6.83007C27.8632 6.83007 28.5463 6.98267 29.0767 7.28778V6.96812C29.0767 6.48131 28.8878 6.07443 28.5026 5.73294C28.1175 5.39146 27.6671 5.22431 27.1512 5.22431C26.3737 5.22431 25.7561 5.55125 25.3056 6.21248L24.0776 5.4423C24.7534 4.46133 25.7561 3.97452 27.0785 3.97452ZM25.2766 9.36581C25.2766 9.72911 25.4292 10.0343 25.7416 10.274C26.0468 10.5138 26.4101 10.6373 26.8242 10.6373C27.4128 10.6373 27.9359 10.4194 28.3937 9.98339C28.8515 9.54742 29.0839 9.03879 29.0839 8.4503C28.648 8.10881 28.0449 7.93439 27.2675 7.93439C26.7007 7.93439 26.2285 8.07244 25.8506 8.34127C25.4655 8.62464 25.2766 8.9662 25.2766 9.36581Z" fill="#383E41"/>
<path d="M37.9991 4.21423L33.3489 14.9097H31.9102L33.6394 11.1677L30.5732 4.21423H32.0918L34.3007 9.54741H34.3298L36.4804 4.21423H37.9991Z" fill="#383E41"/>
<path d="M12.0712 5.05634H6.22363V7.4541L9.59138 7.45484C9.45481 8.25263 9.01521 8.93271 8.34166 9.38612V9.38657C8.34188 9.38642 8.34218 9.38627 8.3424 9.38612L8.28176 10.8192L10.3471 10.941C10.3468 10.9413 10.3465 10.9416 10.3463 10.9418C11.5168 9.85846 12.1875 8.25701 12.1875 6.36499C12.1875 5.91009 12.1468 5.47486 12.0712 5.05634Z" fill="#0085F7"/>
<path d="M8.34281 9.38613C8.34259 9.38628 8.34229 9.38643 8.34207 9.38657C7.78415 9.76265 7.06577 9.98264 6.22553 9.98264C4.60159 9.98264 3.22398 8.88841 2.73064 7.41343H2.73042C2.73049 7.41365 2.73057 7.41395 2.73064 7.41417L1.00643 7.14111L0.663086 9.01822C1.6877 11.051 3.79318 12.4458 6.2256 12.4458C7.90647 12.4458 9.31866 11.8931 10.3468 10.9417C10.3471 10.9415 10.3473 10.9413 10.3476 10.941L8.34281 9.38613Z" fill="#00A94B"/>
<path d="M2.53507 6.22325C2.53507 5.8091 2.60409 5.40876 2.72982 5.03239L2.19143 3.42804H0.661897C0.238321 4.26873 0 5.21764 0 6.22325C0 7.22886 0.239064 8.17777 0.661897 9.01846L0.662193 9.01824L2.72982 7.41412C2.72975 7.41389 2.72967 7.41367 2.7296 7.41337C2.60402 7.0373 2.53507 6.63718 2.53507 6.22325Z" fill="#FFBB00"/>
<path d="M6.22492 0C3.79302 0 1.68665 1.39505 0.662109 3.42809L2.72996 5.03243C3.2233 3.55745 4.60091 2.46322 6.22485 2.46322C7.14251 2.46322 7.96435 2.77933 8.61318 3.39691L10.3897 1.62186C9.31078 0.616845 7.90408 0 6.22492 0Z" fill="#FF4031"/>
</svg>
