<svg id="Brand" xmlns="http://www.w3.org/2000/svg" width="34.277" height="34.277" viewBox="0 0 34.277 34.277">
  <g id="Iconspace_User_1_25px" data-name="Iconspace_User 1_25px">
    <path id="Path" d="M0,0H34.277V34.277H0Z" fill="none"/>
    <path id="Path-2" data-name="Path" d="M0,0H34.277V34.277H0Z" fill="none"/>
    <g id="instagram_1_" data-name="instagram (1)" transform="translate(2.742 2.742)">
      <path id="Shape" d="M14.4,28.792c-3.9,0-4.406,0-5.931-.086a10.483,10.483,0,0,1-3.5-.677,6.916,6.916,0,0,1-2.548-1.655A6.822,6.822,0,0,1,.763,23.825a10.442,10.442,0,0,1-.676-3.5C0,18.8,0,18.3,0,14.4S0,9.991.087,8.465a10.446,10.446,0,0,1,.676-3.5A6.812,6.812,0,0,1,2.419,2.419,6.918,6.918,0,0,1,4.967.763a10.446,10.446,0,0,1,3.5-.676C9.991,0,10.492,0,14.4,0s4.4,0,5.931.087a10.442,10.442,0,0,1,3.5.676,6.822,6.822,0,0,1,2.549,1.656,7.155,7.155,0,0,1,1.669,2.548,10.9,10.9,0,0,1,.663,3.5c.086,1.526.086,2.027.086,5.931,0,2.41-.032,3.5-.057,4.377-.016.541-.028.968-.028,1.555a10.892,10.892,0,0,1-.663,3.5,7.039,7.039,0,0,1-1.669,2.549,6.8,6.8,0,0,1-2.549,1.655,10.479,10.479,0,0,1-3.5.677C18.8,28.792,18.3,28.792,14.4,28.792ZM8.7,26.057h0c1.44.086,1.932.086,5.759.086,3.738,0,4.3-.013,5.758-.086a8.094,8.094,0,0,0,2.678-.489,4.629,4.629,0,0,0,1.656-1.08,4.456,4.456,0,0,0,1.08-1.656,8.094,8.094,0,0,0,.489-2.678c.073-1.461.086-2.02.086-5.758s-.013-4.3-.086-5.759A8.078,8.078,0,0,0,25.626,5.9a4.444,4.444,0,0,0-1.08-1.583,4.43,4.43,0,0,0-1.714-1.151,8.023,8.023,0,0,0-2.678-.489c-1.439-.087-1.93-.087-5.758-.087-2.342,0-3.46.034-4.276.059-.523.016-.934.028-1.483.028A8.218,8.218,0,0,0,5.9,3.168,4.488,4.488,0,0,0,4.319,4.319,4.353,4.353,0,0,0,3.182,5.9a7.934,7.934,0,0,0-.5,2.736c-.087,1.44-.087,1.932-.087,5.759,0,2.342.034,3.459.059,4.275.016.522.028.933.028,1.482a7.972,7.972,0,0,0,.575,2.736,4.341,4.341,0,0,0,1.066,1.656A4.706,4.706,0,0,0,5.9,25.626a8.281,8.281,0,0,0,2.646.433Zm5.72-4.277H14.41A7.385,7.385,0,0,1,14.4,7.011h.032a7.321,7.321,0,0,1,5.2,2.154,7.391,7.391,0,0,1-5.218,12.616ZM14.4,9.6A4.794,4.794,0,1,0,19.189,14.4,4.8,4.8,0,0,0,14.4,9.6Zm7.687-1.166a1.728,1.728,0,1,1,.662-.132A1.713,1.713,0,0,1,22.083,8.436Z" transform="translate(0 0)" fill="#919eab"/>
    </g>
  </g>
</svg>
