<svg id="Brand" xmlns="http://www.w3.org/2000/svg" width="34.277" height="34.277" viewBox="0 0 34.277 34.277">
  <g id="Iconspace_User_1_25px" data-name="Iconspace_User 1_25px">
    <path id="Path" d="M0,0H34.277V34.277H0Z" fill="none"/>
    <path id="Path-2" data-name="Path" d="M0,0H34.277V34.277H0Z" fill="none"/>
    <g id="linkedin" transform="translate(2.828 2.742)">
      <path id="Shape" d="M26.53,28.794H2.089A2.088,2.088,0,0,1,0,26.734V2.059A2.088,2.088,0,0,1,2.089,0H26.53a2.088,2.088,0,0,1,2.089,2.059V26.734a2.088,2.088,0,0,1-2.089,2.06ZM17.751,14.268c1.452,0,2.187.969,2.187,2.879V24.1h4.319V16.643a6.348,6.348,0,0,0-1.4-4.418A4.672,4.672,0,0,0,19.29,10.8l-.159,0a4.33,4.33,0,0,0-3.742,2.162V11.128H11.071V24.085h4.319v-7.2a2.86,2.86,0,0,1,.144-1.05A2.381,2.381,0,0,1,17.751,14.268ZM4.362,11.144V24.1H8.681V11.144ZM6.522,4.838a2.246,2.246,0,1,0,0,4.491,2.27,2.27,0,0,0,.256.015,2.26,2.26,0,0,0,0-4.52,2.277,2.277,0,0,0-.256.015h0Z" transform="translate(0 0)" fill="#919eab"/>
    </g>
  </g>
</svg>
