<svg id="Brand" xmlns="http://www.w3.org/2000/svg" width="34.277" height="34.277" viewBox="0 0 34.277 34.277">
  <g id="Iconspace_User_1_25px" data-name="Iconspace_User 1_25px">
    <path id="Path" d="M0,0H34.277V34.277H0Z" fill="none"/>
    <path id="Path-2" data-name="Path" d="M0,0H34.277V34.277H0Z" fill="none"/>
    <g id="twitter_2_" data-name="twitter (2)" transform="translate(2.742 5.342)">
      <path id="Path-3" data-name="Path" d="M28.792,2.823a12.172,12.172,0,0,1-3.4.926A5.971,5.971,0,0,0,28,.464a11.782,11.782,0,0,1-3.757,1.447A5.88,5.88,0,0,0,17.122.7a5.945,5.945,0,0,0-2.957,6.624A16.728,16.728,0,0,1,2,1.115a6.045,6.045,0,0,0-.792,3,5.928,5.928,0,0,0,2.62,4.935,5.807,5.807,0,0,1-2.678-.738v.072A5.926,5.926,0,0,0,5.9,14.169a5.63,5.63,0,0,1-1.584.246,7.018,7.018,0,0,1-1.109-.1,5.921,5.921,0,0,0,5.514,4.11A11.794,11.794,0,0,1,1.44,20.971,11.357,11.357,0,0,1,0,20.885a16.593,16.593,0,0,0,9.055,2.677,16.64,16.64,0,0,0,11.956-4.9,16.819,16.819,0,0,0,4.9-12.007V5.891a12.174,12.174,0,0,0,2.879-3.068Z" transform="translate(0 0)" fill="#919eab"/>
    </g>
  </g>
</svg>
